<?xml version="1.0" encoding="UTF-8"?>
<svg width="138px" height="15px" viewBox="0 0 138 15" version="1.1" xmlns="http://www.w3.org/2000/svg" xmlns:xlink="http://www.w3.org/1999/xlink">
    <!-- Generator: Sketch 46.1 (44463) - http://www.bohemiancoding.com/sketch -->
    <title>breakable_platform</title>
    <desc>Created with Sketch.</desc>
    <defs></defs>
    <g id="Page-1" stroke="none" stroke-width="1" fill="none" fill-rule="evenodd">
        <g id="breakable_platform" transform="translate(0.000000, -2.000000)">
            <rect id="Rectangle-2-Copy-2" fill="#F6D43B" fill-rule="nonzero" x="0" y="2" width="138" height="15" rx="7.5"></rect>
            <path d="M68.316356,2.56885776 C68.5862726,2.45671916 69.3658554,2.01082902 70.168317,1.58415261 C70.5708409,1.37012689 70.9252409,1.18168906 71.2313004,1.0189543 C71.53736,0.856219533 71.5583556,0.845056003 71.6387691,0.80229936 C71.7191827,0.759542718 71.7921368,0.715590879 71.8286535,0.701336039 C71.8467469,0.694272995 72.0721448,0.572497066 72.1363274,0.537742904 C72.4693213,0.360686912 72.1514511,0.53071462 72.1514511,0.53071462 C72.1419511,1.30716479 72.1342498,2.61306478 72.1342498,3.44299966 L72.1342498,9.43020436 C72.1342498,10.2621648 71.465467,10.936602 70.6388205,10.936602 L69.7902196,10.936602 C68.9643168,10.936602 68.2965187,10.2659792 68.2986458,9.44061703 L68.316356,2.56885776 Z" id="Rectangle" fill="#311400" transform="translate(70.293495, 5.696894) rotate(28.000000) translate(-70.293495, -5.696894) "></path>
            <path d="M68.7750553,10.4025856 C68.7720063,9.57526539 68.7927984,9.53684561 68.7927984,9.53684561 L68.7927984,9.53684561 C69.062496,9.39344487 69.8927426,8.95199492 70.7889835,8.47545518 C71.2207839,8.24586284 71.6175013,8.03492443 71.9504524,7.85789119 C72.2834035,7.68085794 72.2988183,7.67266176 72.4492257,7.59268875 C72.5378357,7.54557397 72.5960533,7.50792876 72.6354455,7.49367392 C72.6748377,7.47941908 72.7195324,7.4489641 72.784548,7.41439472 C72.7979897,7.40724762 72.7530066,7.4309064 72.7637461,7.42545527 C72.7744856,7.42000414 72.7637461,7.42545527 72.7637461,7.42545527 C72.8452552,8.24235875 72.9113314,9.58105263 72.9113314,10.4109875 L72.9113314,16.3981922 C72.9113314,17.2301527 72.2419479,18.0237262 71.4399715,18.1659718 C71.4399715,18.1659718 69.0575408,18.5920436 69.1586884,18.5595524 C69.259836,18.5270613 69.1586884,18.5595524 69.1586884,18.5595524 C68.9627419,18.3765393 68.8014247,17.5576484 68.7983751,16.7301821 L68.7750553,10.4025856 Z" id="Rectangle" fill="#7F530B" transform="translate(70.843041, 12.987179) scale(-1, 1) rotate(208.000000) translate(-70.843041, -12.987179) "></path>
            <path d="M68.7750553,10.4025856 C68.7720063,9.57526539 68.7927984,9.53684561 68.7927984,9.53684561 L68.7927984,9.53684561 C69.062496,9.39344487 69.8927426,8.95199492 70.7889835,8.47545518 C71.2207839,8.24586284 71.6175013,8.03492443 71.9504524,7.85789119 C72.2834035,7.68085794 72.2988183,7.67266176 72.4492257,7.59268875 C72.5378357,7.54557397 72.5960533,7.50792876 72.6354455,7.49367392 C72.6748377,7.47941908 72.7195324,7.4489641 72.784548,7.41439472 C72.7979897,7.40724762 72.7530066,7.4309064 72.7637461,7.42545527 C72.7744856,7.42000414 72.7637461,7.42545527 72.7637461,7.42545527 C72.8452552,8.24235875 72.9113314,9.58105263 72.9113314,10.4109875 L72.9113314,16.3981922 C72.9113314,17.2301527 72.2419479,18.0237262 71.4399715,18.1659718 C71.4399715,18.1659718 69.0575408,18.5920436 69.1586884,18.5595524 C69.259836,18.5270613 69.1586884,18.5595524 69.1586884,18.5595524 C68.9627419,18.3765393 68.8014247,17.5576484 68.7983751,16.7301821 L68.7750553,10.4025856 Z" id="Rectangle" fill="#311400" transform="translate(70.843041, 12.987179) scale(-1, 1) rotate(208.000000) translate(-70.843041, -12.987179) "></path>
            <path d="M55.9108305,3.45194078 C55.9095519,2.82053853 55.9188332,2.81903636 55.9212978,2.94094163 L55.9212978,2.94094163 C56.0694839,2.79754089 56.5256655,2.35609094 57.0181078,1.8795512 C57.2553618,1.64995886 57.4733395,1.43902045 57.6562805,1.26198721 C57.8392215,1.08495396 57.8476912,1.07675778 57.930333,0.996784773 C57.97902,0.94966999 58.0110078,0.912024782 58.032652,0.897769943 C58.0542962,0.883515103 58.0788538,0.853060122 58.1145768,0.818490741 C58.1219624,0.811343637 58.0972463,0.835002415 58.1031472,0.829551289 C58.109048,0.824100163 58.1245697,1.17019681 58.1245697,1.17019681 C58.1575238,1.79896697 58.1842383,2.81835173 58.1842383,3.4485421 L58.1842383,10.1688297 C58.1842383,10.7983549 57.6948203,11.4671379 57.1079654,11.6562134 C57.1079654,11.6562134 56.0667613,11.9961396 56.1223372,11.9636485 C56.177913,11.9311574 56.1223372,11.9636485 56.1223372,11.9636485 C56.0146738,11.7806353 55.9263803,11.1309972 55.9250803,10.4890189 L55.9108305,3.45194078 Z" id="Rectangle" fill="#311400" transform="translate(57.047474, 6.391485) scale(-1, 1) rotate(231.000000) translate(-57.047474, -6.391485) "></path>
            <path d="M74.9108305,4.45194078 C74.9095519,3.82053853 74.9188332,3.81903636 74.9212978,3.94094163 L74.9212978,3.94094163 C75.0694839,3.79754089 75.5256655,3.35609094 76.0181078,2.8795512 C76.2553618,2.64995886 76.4733395,2.43902045 76.6562805,2.26198721 C76.8392215,2.08495396 76.8476912,2.07675778 76.930333,1.99678477 C76.97902,1.94966999 77.0110078,1.91202478 77.032652,1.89776994 C77.0542962,1.8835151 77.0788538,1.85306012 77.1145768,1.81849074 C77.1219624,1.81134364 77.0972463,1.83500241 77.1031472,1.82955129 C77.109048,1.82410016 77.1245697,2.17019681 77.1245697,2.17019681 C77.1575238,2.79896697 77.1842383,3.81835173 77.1842383,4.4485421 L77.1842383,11.1688297 C77.1842383,11.7983549 76.6948203,12.4671379 76.1079654,12.6562134 C76.1079654,12.6562134 75.0667613,12.9961396 75.1223372,12.9636485 C75.177913,12.9311574 75.1223372,12.9636485 75.1223372,12.9636485 C75.0146738,12.7806353 74.9263803,12.1309972 74.9250803,11.4890189 L74.9108305,4.45194078 Z" id="Rectangle" fill="#311400" transform="translate(76.047474, 7.391485) scale(-1, 1) rotate(231.000000) translate(-76.047474, -7.391485) "></path>
            <path d="M80.5416663,7.96195662 C80.5403878,7.33055438 80.5496691,7.3290522 80.5521337,7.45095747 L80.5521337,7.45095747 C80.7003198,7.30755673 81.1565014,6.86610679 81.6489437,6.38956704 C81.8861977,6.1599747 82.1041754,5.94903629 82.2871164,5.77200305 C82.4700574,5.5949698 82.4785271,5.58677362 82.5611688,5.50680062 C82.6098559,5.45968583 82.6418437,5.42204062 82.6634879,5.40778578 C82.685132,5.39353095 82.7096897,5.36307596 82.7454127,5.32850658 C82.7527983,5.32135948 82.7280822,5.34501826 82.7339831,5.33956713 C82.7398839,5.334116 82.7554056,5.68021266 82.7554056,5.68021266 C82.7883597,6.30898281 82.8150742,7.32836757 82.8150742,7.95855795 L82.8150742,14.6788455 C82.8150742,15.3083707 82.3256562,15.9771538 81.7388013,16.1662293 C81.7388013,16.1662293 80.6975972,16.5061554 80.7531731,16.4736643 C80.8087489,16.4411732 80.7531731,16.4736643 80.7531731,16.4736643 C80.6455097,16.2906512 80.5572162,15.6410131 80.5559162,14.9990348 L80.5416663,7.96195662 Z" id="Rectangle" fill="#E47B32" transform="translate(81.678310, 10.901501) scale(-1, 1) rotate(82.000000) translate(-81.678310, -10.901501) "></path>
            <path d="M80.5416663,7.96195662 C80.5403878,7.33055438 80.5496691,7.3290522 80.5521337,7.45095747 L80.5521337,7.45095747 C80.7003198,7.30755673 81.1565014,6.86610679 81.6489437,6.38956704 C81.8861977,6.1599747 82.1041754,5.94903629 82.2871164,5.77200305 C82.4700574,5.5949698 82.4785271,5.58677362 82.5611688,5.50680062 C82.6098559,5.45968583 82.6418437,5.42204062 82.6634879,5.40778578 C82.685132,5.39353095 82.7096897,5.36307596 82.7454127,5.32850658 C82.7527983,5.32135948 82.7280822,5.34501826 82.7339831,5.33956713 C82.7398839,5.334116 82.7554056,5.68021266 82.7554056,5.68021266 C82.7883597,6.30898281 82.8150742,7.32836757 82.8150742,7.95855795 L82.8150742,14.6788455 C82.8150742,15.3083707 82.3256562,15.9771538 81.7388013,16.1662293 C81.7388013,16.1662293 80.6975972,16.5061554 80.7531731,16.4736643 C80.8087489,16.4411732 80.7531731,16.4736643 80.7531731,16.4736643 C80.6455097,16.2906512 80.5572162,15.6410131 80.5559162,14.9990348 L80.5416663,7.96195662 Z" id="Rectangle" fill="#311400" transform="translate(81.678310, 10.901501) scale(-1, 1) rotate(82.000000) translate(-81.678310, -10.901501) "></path>
            <path d="M88.259269,5.83209831 C88.2579904,5.20069606 88.2672718,5.19919389 88.2697364,5.32109916 L88.2697364,5.32109916 C88.4179225,5.17769842 88.874104,4.73624847 89.3665464,4.25970873 C89.6038004,4.03011639 89.821778,3.81917798 90.004719,3.64214474 C90.18766,3.46511149 90.1961297,3.45691531 90.2787715,3.3769423 C90.3274586,3.32982752 90.3594464,3.29218231 90.3810906,3.27792747 C90.4027347,3.26367263 90.4272924,3.23321765 90.4630154,3.19864827 C90.470401,3.19150116 90.4456849,3.21515994 90.4515857,3.20970882 C90.4574866,3.20425769 90.4730083,3.55035434 90.4730083,3.55035434 C90.5059623,4.17912449 90.5326769,5.19850926 90.5326769,5.82869963 L90.5326769,12.5489872 C90.5326769,13.1785124 90.0432589,13.8472955 89.456404,14.0363709 C89.456404,14.0363709 88.4151999,14.3762971 88.4707757,14.343806 C88.5263516,14.3113149 88.4707757,14.343806 88.4707757,14.343806 C88.3631123,14.1607928 88.2748188,13.5111548 88.2735188,12.8691765 L88.259269,5.83209831 Z" id="Rectangle" fill="#311400" transform="translate(89.395913, 8.771643) scale(-1, 1) rotate(-60.000000) translate(-89.395913, -8.771643) "></path>
            <path d="M49.4523042,2.10155604 C49.4517527,1.68887357 49.4559185,1.7000546 49.4597415,1.98658407 L49.4597415,1.98658407 C49.557539,1.84318334 49.8586024,1.40173339 50.1835966,0.925193645 C50.3401757,0.695601305 50.4840331,0.484662895 50.6047676,0.30762965 C50.7255021,0.130596405 50.7310918,0.122400225 50.7856324,0.0424272161 C50.8177641,-0.00468756768 50.8388749,-0.0423327753 50.8531592,-0.0565876146 C50.8674436,-0.0708424538 50.8836508,-0.101297435 50.9072267,-0.135866817 C50.9121009,-0.143013921 50.8957892,-0.119355142 50.8996835,-0.124806268 C50.9035779,-0.130257394 50.9279025,0.612716857 50.9279025,0.612716857 C50.9418744,1.02229756 50.9532008,1.69614904 50.9532008,2.1061833 L50.9532008,9.60247336 C50.9532008,10.0177114 50.6577954,10.4992694 50.2752198,10.6861258 C50.2752198,10.6861258 49.5557422,11.041782 49.5924203,11.0092909 C49.6290983,10.9767998 49.5924203,11.0092909 49.5924203,11.0092909 C49.5213663,10.8262778 49.4633222,10.3460848 49.4627671,9.93068856 L49.4523042,2.10155604 Z" id="Rectangle" fill="#311400" transform="translate(50.202728, 5.437082) scale(-1, 1) rotate(-60.000000) translate(-50.202728, -5.437082) "></path>
            <path d="M42.4523042,6.10155604 C42.4517527,5.68887357 42.4559185,5.7000546 42.4597415,5.98658407 L42.4597415,5.98658407 C42.557539,5.84318334 42.8586024,5.40173339 43.1835966,4.92519364 C43.3401757,4.69560131 43.4840331,4.4846629 43.6047676,4.30762965 C43.7255021,4.13059641 43.7310918,4.12240022 43.7856324,4.04242722 C43.8177641,3.99531243 43.8388749,3.95766722 43.8531592,3.94341239 C43.8674436,3.92915755 43.8836508,3.89870256 43.9072267,3.86413318 C43.9121009,3.85698608 43.8957892,3.88064486 43.8996835,3.87519373 C43.9035779,3.86974261 43.9279025,4.61271686 43.9279025,4.61271686 C43.9418744,5.02229756 43.9532008,5.69614904 43.9532008,6.1061833 L43.9532008,13.6024734 C43.9532008,14.0177114 43.6577954,14.4992694 43.2752198,14.6861258 C43.2752198,14.6861258 42.5557422,15.041782 42.5924203,15.0092909 C42.6290983,14.9767998 42.5924203,15.0092909 42.5924203,15.0092909 C42.5213663,14.8262778 42.4633222,14.3460848 42.4627671,13.9306886 L42.4523042,6.10155604 Z" id="Rectangle" fill="#311400" transform="translate(43.202728, 9.437082) scale(-1, 1) rotate(-60.000000) translate(-43.202728, -9.437082) "></path>
            <path d="M32.4523042,2.10155604 C32.4517527,1.68887357 32.4559185,1.7000546 32.4597415,1.98658407 L32.4597415,1.98658407 C32.557539,1.84318334 32.8586024,1.40173339 33.1835966,0.925193645 C33.3401757,0.695601305 33.4840331,0.484662895 33.6047676,0.30762965 C33.7255021,0.130596405 33.7310918,0.122400225 33.7856324,0.0424272161 C33.8177641,-0.00468756768 33.8388749,-0.0423327753 33.8531592,-0.0565876146 C33.8674436,-0.0708424538 33.8836508,-0.101297435 33.9072267,-0.135866817 C33.9121009,-0.143013921 33.8957892,-0.119355142 33.8996835,-0.124806268 C33.9035779,-0.130257394 33.9279025,0.612716857 33.9279025,0.612716857 C33.9418744,1.02229756 33.9532008,1.69614904 33.9532008,2.1061833 L33.9532008,9.60247336 C33.9532008,10.0177114 33.6577954,10.4992694 33.2752198,10.6861258 C33.2752198,10.6861258 32.5557422,11.041782 32.5924203,11.0092909 C32.6290983,10.9767998 32.5924203,11.0092909 32.5924203,11.0092909 C32.5213663,10.8262778 32.4633222,10.3460848 32.4627671,9.93068856 L32.4523042,2.10155604 Z" id="Rectangle" fill="#311400" transform="translate(33.202728, 5.437082) scale(-1, 1) rotate(-60.000000) translate(-33.202728, -5.437082) "></path>
            <path d="M49.2462348,7.47651648 C49.2456833,7.06383401 49.2498491,7.07501503 49.2536722,7.36154451 L49.2536722,7.36154451 C49.3514697,7.21814377 49.6525331,6.77669382 49.9775273,6.30015408 C50.1341064,6.07056174 50.2779638,5.85962333 50.3986982,5.68259009 C50.5194327,5.50555684 50.5250224,5.49736066 50.579563,5.41738765 C50.6116947,5.37027287 50.6328055,5.33262766 50.6470899,5.31837282 C50.6613743,5.30411798 50.6775814,5.273663 50.7011573,5.23909362 C50.7060316,5.23194652 50.6897198,5.25560529 50.6936142,5.25015417 C50.6975085,5.24470304 50.7218332,5.98767729 50.7218332,5.98767729 C50.735805,6.397258 50.7471314,7.07110948 50.7471314,7.48114373 L50.7471314,14.9774338 C50.7471314,15.3926718 50.4517261,15.8742299 50.0691504,16.0610862 C50.0691504,16.0610862 49.3496728,16.4167425 49.3863509,16.3842513 C49.423029,16.3517602 49.3863509,16.3842513 49.3863509,16.3842513 C49.3152969,16.2012382 49.2572529,15.7210453 49.2566977,15.305649 L49.2462348,7.47651648 Z" id="Rectangle" fill="#311400" transform="translate(49.996658, 10.812043) scale(-1, 1) rotate(-125.000000) translate(-49.996658, -10.812043) "></path>
            <path d="M37.2462348,4.47651648 C37.2456833,4.06383401 37.2498491,4.07501503 37.2536722,4.36154451 L37.2536722,4.36154451 C37.3514697,4.21814377 37.6525331,3.77669382 37.9775273,3.30015408 C38.1341064,3.07056174 38.2779638,2.85962333 38.3986982,2.68259009 C38.5194327,2.50555684 38.5250224,2.49736066 38.579563,2.41738765 C38.6116947,2.37027287 38.6328055,2.33262766 38.6470899,2.31837282 C38.6613743,2.30411798 38.6775814,2.273663 38.7011573,2.23909362 C38.7060316,2.23194652 38.6897198,2.25560529 38.6936142,2.25015417 C38.6975085,2.24470304 38.7218332,2.98767729 38.7218332,2.98767729 C38.735805,3.397258 38.7471314,4.07110948 38.7471314,4.48114373 L38.7471314,11.9774338 C38.7471314,12.3926718 38.4517261,12.8742299 38.0691504,13.0610862 C38.0691504,13.0610862 37.3496728,13.4167425 37.3863509,13.3842513 C37.423029,13.3517602 37.3863509,13.3842513 37.3863509,13.3842513 C37.3152969,13.2012382 37.2572529,12.7210453 37.2566977,12.305649 L37.2462348,4.47651648 Z" id="Rectangle" fill="#311400" transform="translate(37.996658, 7.812043) scale(-1, 1) rotate(-125.000000) translate(-37.996658, -7.812043) "></path>
            <path d="M91.2462348,9.47651648 C91.2456833,9.06383401 91.2498491,9.07501503 91.2536722,9.36154451 L91.2536722,9.36154451 C91.3514697,9.21814377 91.6525331,8.77669382 91.9775273,8.30015408 C92.1341064,8.07056174 92.2779638,7.85962333 92.3986982,7.68259009 C92.5194327,7.50555684 92.5250224,7.49736066 92.579563,7.41738765 C92.6116947,7.37027287 92.6328055,7.33262766 92.6470899,7.31837282 C92.6613743,7.30411798 92.6775814,7.273663 92.7011573,7.23909362 C92.7060316,7.23194652 92.6897198,7.25560529 92.6936142,7.25015417 C92.6975085,7.24470304 92.7218332,7.98767729 92.7218332,7.98767729 C92.735805,8.397258 92.7471314,9.07110948 92.7471314,9.48114373 L92.7471314,16.9774338 C92.7471314,17.3926718 92.4517261,17.8742299 92.0691504,18.0610862 C92.0691504,18.0610862 91.3496728,18.4167425 91.3863509,18.3842513 C91.423029,18.3517602 91.3863509,18.3842513 91.3863509,18.3842513 C91.3152969,18.2012382 91.2572529,17.7210453 91.2566977,17.305649 L91.2462348,9.47651648 Z" id="Rectangle" fill="#311400" transform="translate(91.996658, 12.812043) scale(-1, 1) rotate(-125.000000) translate(-91.996658, -12.812043) "></path>
            <path d="M56.2462348,7.47651648 C56.2456833,7.06383401 56.2498491,7.07501503 56.2536722,7.36154451 L56.2536722,7.36154451 C56.3514697,7.21814377 56.6525331,6.77669382 56.9775273,6.30015408 C57.1341064,6.07056174 57.2779638,5.85962333 57.3986982,5.68259009 C57.5194327,5.50555684 57.5250224,5.49736066 57.579563,5.41738765 C57.6116947,5.37027287 57.6328055,5.33262766 57.6470899,5.31837282 C57.6613743,5.30411798 57.6775814,5.273663 57.7011573,5.23909362 C57.7060316,5.23194652 57.6897198,5.25560529 57.6936142,5.25015417 C57.6975085,5.24470304 57.7218332,5.98767729 57.7218332,5.98767729 C57.735805,6.397258 57.7471314,7.07110948 57.7471314,7.48114373 L57.7471314,14.9774338 C57.7471314,15.3926718 57.4517261,15.8742299 57.0691504,16.0610862 C57.0691504,16.0610862 56.3496728,16.4167425 56.3863509,16.3842513 C56.423029,16.3517602 56.3863509,16.3842513 56.3863509,16.3842513 C56.3152969,16.2012382 56.2572529,15.7210453 56.2566977,15.305649 L56.2462348,7.47651648 Z" id="Rectangle" fill="#311400" transform="translate(56.996658, 10.812043) rotate(-125.000000) translate(-56.996658, -10.812043) "></path>
            <path d="M77.8717923,1.99350952 C77.8712408,1.58082705 77.8754066,1.59200808 77.8792297,1.87853756 L77.8792297,1.87853756 C77.9770272,1.73513682 78.2780906,1.29368687 78.6030848,0.817147127 C78.7596639,0.587554787 78.9035213,0.376616377 79.0242557,0.199583133 C79.1449902,0.0225498878 79.1505799,0.0143537071 79.2051205,-0.0656193016 C79.2372522,-0.112734085 79.258363,-0.150379293 79.2726474,-0.164634132 C79.2869318,-0.178888971 79.3031389,-0.209343953 79.3267148,-0.243913334 C79.3315891,-0.251060438 79.3152773,-0.22740166 79.3191717,-0.232852786 C79.323066,-0.238303912 79.3473907,0.504670339 79.3473907,0.504670339 C79.3613625,0.914251044 79.3726889,1.58810253 79.3726889,1.99813678 L79.3726889,9.49442684 C79.3726889,9.90966487 79.0772836,10.3912229 78.694708,10.5780792 C78.694708,10.5780792 77.9752303,10.9337355 78.0119084,10.9012444 C78.0485865,10.8687533 78.0119084,10.9012444 78.0119084,10.9012444 C77.9408544,10.7182312 77.8828104,10.2380383 77.8822552,9.82264204 L77.8717923,1.99350952 Z" id="Rectangle" fill="#311400" transform="translate(78.622216, 5.329036) scale(-1, -1) rotate(-264.000000) translate(-78.622216, -5.329036) "></path>
            <path d="M43.8717923,6.99350952 C43.8712408,6.58082705 43.8754066,6.59200808 43.8792297,6.87853756 L43.8792297,6.87853756 C43.9770272,6.73513682 44.2780906,6.29368687 44.6030848,5.81714713 C44.7596639,5.58755479 44.9035213,5.37661638 45.0242557,5.19958313 C45.1449902,5.02254989 45.1505799,5.01435371 45.2051205,4.9343807 C45.2372522,4.88726591 45.258363,4.84962071 45.2726474,4.83536587 C45.2869318,4.82111103 45.3031389,4.79065605 45.3267148,4.75608667 C45.3315891,4.74893956 45.3152773,4.77259834 45.3191717,4.76714721 C45.323066,4.76169609 45.3473907,5.50467034 45.3473907,5.50467034 C45.3613625,5.91425104 45.3726889,6.58810253 45.3726889,6.99813678 L45.3726889,14.4944268 C45.3726889,14.9096649 45.0772836,15.3912229 44.694708,15.5780792 C44.694708,15.5780792 43.9752303,15.9337355 44.0119084,15.9012444 C44.0485865,15.8687533 44.0119084,15.9012444 44.0119084,15.9012444 C43.9408544,15.7182312 43.8828104,15.2380383 43.8822552,14.822642 L43.8717923,6.99350952 Z" id="Rectangle" fill="#311400" transform="translate(44.622216, 10.329036) scale(-1, -1) rotate(-264.000000) translate(-44.622216, -10.329036) "></path>
            <path d="M95.8466786,2.60903031 C95.8461271,2.19634783 95.8502929,2.20752886 95.8541159,2.49405834 L95.8541159,2.49405834 C95.9519134,2.3506576 96.2529768,1.90920765 96.577971,1.43266791 C96.7345501,1.20307557 96.8784075,0.992137159 96.999142,0.815103914 C97.1198765,0.63807067 97.1254662,0.629874489 97.1800068,0.54990148 C97.2121385,0.502786696 97.2332493,0.465141489 97.2475337,0.45088665 C97.261818,0.43663181 97.2780252,0.406176829 97.3016011,0.371607448 C97.3064753,0.364460343 97.2901636,0.388119122 97.2940579,0.382667996 C97.2979523,0.37721687 97.3222769,1.12019112 97.3222769,1.12019112 C97.3362488,1.52977183 97.3475752,2.20362331 97.3475752,2.61365756 L97.3475752,10.1099476 C97.3475752,10.5251857 97.0521698,11.0067437 96.6695942,11.1936 C96.6695942,11.1936 95.9501166,11.5492563 95.9867947,11.5167652 C96.0234727,11.4842741 95.9867947,11.5167652 95.9867947,11.5167652 C95.9157407,11.333752 95.8576966,10.8535591 95.8571415,10.4381628 L95.8466786,2.60903031 Z" id="Rectangle" fill="#311400" transform="translate(96.597102, 5.944556) scale(-1, 1) rotate(-268.000000) translate(-96.597102, -5.944556) "></path>
            <path d="M93.7685394,7.28897763 C93.7679879,6.87629516 93.7721537,6.88747618 93.7759767,7.17400566 L93.7759767,7.17400566 C93.8737743,7.03060492 94.1748377,6.58915497 94.4998318,6.11261523 C94.656411,5.88302289 94.8002684,5.67208448 94.9210028,5.49505124 C95.0417373,5.31801799 95.047327,5.30982181 95.1018676,5.2298488 C95.1339993,5.18273402 95.1551101,5.14508881 95.1693945,5.13083397 C95.1836788,5.11657913 95.199886,5.08612415 95.2234619,5.05155477 C95.2283362,5.04440766 95.2120244,5.06806644 95.2159188,5.06261532 C95.2198131,5.05716419 95.2441378,5.80013844 95.2441378,5.80013844 C95.2581096,6.20971915 95.269436,6.88357063 95.269436,7.29360488 L95.269436,14.7898949 C95.269436,15.205133 94.9740307,15.686691 94.591455,15.8735473 C94.591455,15.8735473 93.8719774,16.2292036 93.9086555,16.1967125 C93.9453336,16.1642214 93.9086555,16.1967125 93.9086555,16.1967125 C93.8376015,16.0136993 93.7795574,15.5335064 93.7790023,15.1181101 L93.7685394,7.28897763 Z" id="Rectangle" fill="#311400" transform="translate(94.518963, 10.624504) scale(-1, 1) rotate(-163.000000) translate(-94.518963, -10.624504) "></path>
            <path d="M62.2705812,5.33021455 C62.2685996,4.54815044 62.2829877,4.54641796 62.2829877,4.54641796 L62.2829877,4.54641796 C62.4684117,4.40301723 63.0392274,3.96156728 63.6554159,3.48502754 C63.9522897,3.2554352 64.2250431,3.04449679 64.4539555,2.86746354 C64.6828679,2.6904303 64.6934659,2.68223412 64.7968748,2.60226111 C64.8577965,2.55514632 64.8978226,2.51750112 64.9249057,2.50324628 C64.9519888,2.48899144 64.9827176,2.45853646 65.0274175,2.42396707 C65.036659,2.41681997 65.005732,2.44047875 65.0131157,2.43502762 C65.0204994,2.4295765 65.0195956,2.49701912 65.0195956,2.49701912 C65.0720564,3.27968564 65.1145843,4.54702474 65.1145843,5.34023897 L65.1145843,11.4880855 C65.1145843,12.2756859 64.5021801,13.0726143 63.7372486,13.2695418 C63.7372486,13.2695418 62.4650048,13.6016159 62.5345464,13.5691248 C62.604088,13.5366337 62.5345464,13.5691248 62.5345464,13.5691248 C62.3998282,13.3861116 62.2889937,12.5969022 62.2870295,11.8216978 L62.2705812,5.33021455 Z" id="Rectangle" fill="#311400" transform="translate(63.692489, 7.996986) scale(-1, 1) rotate(276.000000) translate(-63.692489, -7.996986) "></path>
        </g>
    </g>
</svg>